# xmcd
#
# Track frame offsets:
#	150
#	1652
#	20784
#	40012
#	41649
#	45338
#	51970
#	64285
#	65814
#	84259
#	100909
#	112079
#	116362
#	133214
#	140008
#	163768
#
# Disc length: 2377 seconds
#
# Revision: 0
# Processed by: cddbd v1.4PL0 Copyright (c) Steve Scherf et al.
# Submitted via: dBpowerAMP V4.0
#
DISCID=df094710
DTITLE=Saffire - The Uppity Blues Women - Old, New, Borrowed and Blue
DYEAR=1900
DGENRE=Blues
TTITLE0=Fools' Night Out
TTITLE1=Taint Nobody's Business
TTITLE2=You Got To Know How
TTITLE3=Do Your Duty
TTITLE4=Roll Mr. Jelly
TTITLE5=The Clock
TTITLE6=The Richest Guy In The Graveyard
TTITLE7=Don't You Tell Me
TTITLE8=Bitch With A Bad Attitude
TTITLE9=Sweet Substitute
TTITLE10=Baby, I'm Wise
TTITLE11=Falling Back In Love With You
TTITLE12=There's Lightning In These Thunder Thighs
TTITLE13=How Can I Say I Miss You?
TTITLE14=Life Goes On
TTITLE15=Yonder Come The Blues
EXTD=
EXTT0=
EXTT1=
EXTT2=
EXTT3=
EXTT4=
EXTT5=
EXTT6=
EXTT7=
EXTT8=
EXTT9=
EXTT10=
EXTT11=
EXTT12=
EXTT13=
EXTT14=
EXTT15=
PLAYORDER=
